:FULLY-SPECIFIED
:FORCE-ALL-JOINTS-BE-3DOF
:DEGREES
408
root 7.15659 13.7926 -34.2399 157.182 75.9617 150.6
lfemur 21.4201 -1.59721 -10.656
ltibia 19.5013 0 0
lfoot -24.2249 34.44 0
ltoes -26.7639 0 0
rfemur -67.1891 -16.4524 8.81063
rtibia 80.572 0 0
rfoot -15.0048 12.7524 0
rtoes 10.7453 0 0
lowerback 7.72564 5.11713 -11.9066
upperback -2.68974 5.47832 -1.52775
thorax -8.22558 3.23364 4.1405
lowerneck 0.266672 -11.5514 -10.882
upperneck 3.85901 -15.7037 9.04478
head 2.67012 -7.83655 3.86021
lclavicle -2.20936e-14 3.04067e-14 0
lhumerus -70.3781 -19.0684 106.13
lradius 100.177 0 0
lwrist 50.182 0 0
lhand -9.10497 41.8854 0
lfingers 7.12502 0 0
lthumb 16.8457 71.1797 0
rclavicle -2.20936e-14 3.04067e-14 0
rhumerus 49.7682 -3.83052 -60.8392
rradius 19.2611 0 0
rwrist 21.5831 0 0
rhand -22.7947 -32.3844 0
rfingers 7.12502 0 0
rthumb 3.64204 -62.3524 0
409
root 7.15662 13.7919 -34.2413 156.912 75.9873 150.266
lfemur 21.8571 -1.48699 -10.7172
ltibia 18.7461 0 0
lfoot -24.309 34.6161 0
ltoes -26.7582 0 0
rfemur -67.2946 -16.5797 8.83836
rtibia 80.7656 0 0
rfoot -15.1348 12.835 0
rtoes 10.9398 0 0
lowerback 7.61527 5.12705 -12.0005
upperback -2.73216 5.48472 -1.55994
thorax -8.21456 3.24172 4.16162
lowerneck 0.230735 -11.5206 -10.8804
upperneck 3.9029 -15.66 8.99905
head 2.68007 -7.8141 3.84611
lclavicle -2.30079e-14 3.07467e-14 0
lhumerus -70.4507 -18.8115 106.095
lradius 100.167 0 0
lwrist 50.0441 0 0
lhand -9.03868 41.724 0
lfingers 7.12502 0 0
lthumb 16.9096 71.0134 0
rclavicle -2.30079e-14 3.07467e-14 0
rhumerus 49.874 -3.81834 -61.0201
rradius 19.0989 0 0
rwrist 22.0927 0 0
rhand -22.9227 -32.3267 0
rfingers 7.12502 0 0
rthumb 3.51849 -62.3004 0
410
root 7.15665 13.7912 -34.2427 156.677 76.0031 149.969
lfemur 22.2418 -1.3931 -10.7711
ltibia 18.0678 0 0
lfoot -24.3831 34.7761 0
ltoes -26.7415 0 0
rfemur -67.3896 -16.6964 8.85873
rtibia 80.9358 0 0
rfoot -15.2477 12.9205 0
rtoes 11.0994 0 0
lowerback 7.51633 5.13543 -12.0873
upperback -2.77121 5.48927 -1.58888
thorax -8.20588 3.24859 4.18206
lowerneck 0.198168 -11.4931 -10.8809
upperneck 3.93629 -15.6206 8.95871
head 2.68745 -7.7939 3.83409
lclavicle -2.37247e-14 3.08757e-14 0
lhumerus -70.5181 -18.573 106.063
lradius 100.161 0 0
lwrist 49.9144 0 0
lhand -8.98484 41.5774 0
lfingers 7.12502 0 0
lthumb 16.9615 70.8628 0
rclavicle -2.37247e-14 3.08757e-14 0
rhumerus 49.9751 -3.81832 -61.1903
rradius 18.9469 0 0
rwrist 22.568 0 0
rhand -23.0387 -32.2886 0
rfingers 7.12502 0 0
rthumb 3.40654 -62.2675 0
411
root 7.15668 13.7905 -34.2441 156.498 76.0078 149.735
lfemur 22.5516 -1.31994 -10.8128
ltibia 17.5052 0 0
lfoot -24.4471 34.9132 0
ltoes -26.707 0 0
rfemur -67.4697 -16.7978 8.87221
rtibia 81.0746 0 0
rfoot -15.3387 13.0041 0
rtoes 11.2098 0 0
lowerback 7.43323 5.141 -12.1613
upperback -2.80535 5.49082 -1.61225
thorax -8.19987 3.25345 4.20113
lowerneck 0.169826 -11.4695 -10.8838
upperneck 3.95688 -15.5865 8.92565
head 2.69173 -7.77645 3.82484
lclavicle -2.42645e-14 3.08043e-14 0
lhumerus -70.5779 -18.3628 106.036
lradius 100.157 0 0
lwrist 49.7985 0 0
lhand -8.94474 41.4507 0
lfingers 7.12502 0 0
lthumb 17.0001 70.7333 0
rclavicle -2.42645e-14 3.08043e-14 0
rhumerus 50.0673 -3.82948 -61.3402
rradius 18.8126 0 0
rwrist 22.9852 0 0
rhand -23.135 -32.2739 0
rfingers 7.12502 0 0
rthumb 3.31365 -62.2571 0
412
root 7.15671 13.7898 -34.2455 156.397 76.0002 149.586
lfemur 22.7638 -1.27192 -10.8378
ltibia 17.0973 0 0
lfoot -24.5009 35.0207 0
ltoes -26.6479 0 0
rfemur -67.5304 -16.8792 8.87927
rtibia 81.1739 0 0
rfoot -15.4033 13.0808 0
rtoes 11.2569 0 0
lowerback 7.37034 5.1425 -12.2166
upperback -2.83303 5.48826 -1.62774
thorax -8.19686 3.25545 4.21817
lowerneck 0.146565 -11.4505 -10.8897
upperneck 3.96234 -15.5586 8.90173
head 2.69239 -7.76223 3.81902
lclavicle -2.46478e-14 3.05429e-14 0
lhumerus -70.6273 -18.1908 106.016
lradius 100.155 0 0
lwrist 49.7018 0 0
lhand -8.91966 41.3492 0
lfingers 7.12502 0 0
lthumb 17.0242 70.6299 0
rclavicle -2.46478e-14 3.05429e-14 0
rhumerus 50.1467 -3.85085 -61.46
rradius 18.7031 0 0
rwrist 23.3205 0 0
rhand -23.2038 -32.2862 0
rfingers 7.12502 0 0
rthumb 3.24725 -62.2726 0
413
root 7.15674 13.7891 -34.2469 156.396 75.979 149.547
lfemur 22.8556 -1.25344 -10.841
ltibia 16.883 0 0
lfoot -24.5444 35.0917 0
ltoes -26.5576 0 0
rfemur -67.5674 -16.9359 8.88036
rtibia 81.2259 0 0
rfoot -15.4366 13.1458 0
rtoes 11.2263 0 0
lowerback 7.33206 5.13866 -12.2475
upperback -2.85269 5.48045 -1.63302
thorax -8.19719 3.25378 4.23251
lowerneck 0.129242 -11.4368 -10.8989
upperneck 3.95038 -15.5378 8.88883
head 2.68892 -7.75171 3.81728
lclavicle -2.48949e-14 3.01019e-14 0
lhumerus -70.6637 -18.067 106.005
lradius 100.154 0 0
lwrist 49.63 0 0
lhand -8.9109 41.2779 0
lfingers 7.12502 0 0
lthumb 17.0327 70.558 0
rclavicle -2.48949e-14 3.01019e-14 0
rhumerus 50.2093 -3.88148 -61.5401
rradius 18.6259 0 0
rwrist 23.5499 0 0
rhand -23.2375 -32.3293 0
rfingers 7.12502 0 0
rthumb 3.21481 -62.3176 0
414
root 7.15677 13.7885 -34.2483 156.516 75.9427 149.641
lfemur 22.8044 -1.2689 -10.8178
ltibia 16.9012 0 0
lfoot -24.5775 35.1194 0
ltoes -26.4292 0 0
rfemur -67.5763 -16.9631 8.87595
rtibia 81.2225 0 0
rfoot -15.4339 13.1944 0
rtoes 11.1039 0 0
lowerback 7.32278 5.12822 -12.2483
upperback -2.86279 5.46626 -1.62578
thorax -8.20118 3.24763 4.24347
lowerneck 0.118712 -11.429 -10.9118
upperneck 3.91868 -15.525 8.88881
head 2.6808 -7.74539 3.82031
lclavicle -2.50263e-14 2.94919e-14 0
lhumerus -70.6846 -18.0011 106.004
lradius 100.155 0 0
lwrist 49.5887 0 0
lhand -8.91975 41.2421 0
lfingers 7.12502 0 0
lthumb 17.0242 70.5228 0
rclavicle -2.50263e-14 2.94919e-14 0
rhumerus 50.251 -3.92039 -61.5706
rradius 18.5882 0 0
rwrist 23.6498 0 0
rhand -23.2282 -32.4069 0
rfingers 7.12502 0 0
rthumb 3.22377 -62.3955 0
415
root 7.1568 13.7878 -34.2497 156.779 75.8901 149.891
lfemur 22.5874 -1.3227 -10.7633
ltibia 17.1907 0 0
lfoot -24.5999 35.097 0
ltoes -26.2561 0 0
rfemur -67.5528 -16.9563 8.86651
rtibia 81.1557 0 0
rfoot -15.3905 13.2216 0
rtoes 10.8755 0 0
lowerback 7.34688 5.10989 -12.2131
upperback -2.86177 5.44457 -1.6037
thorax -8.20918 3.23616 4.25038
lowerneck 0.115833 -11.4278 -10.929
upperneck 3.86493 -15.5212 8.90355
head 2.66749 -7.74374 3.82877
lclavicle -2.50625e-14 2.87234e-14 0
lhumerus -70.6874 -18.0032 106.017
lradius 100.157 0 0
lwrist 49.5832 0 0
lhand -8.94747 41.2468 0
lfingers 7.12502 0 0
lthumb 16.9975 70.5295 0
rclavicle -2.50625e-14 2.87234e-14 0
rhumerus 50.2676 -3.96661 -61.5419
rradius 18.5974 0 0
rwrist 23.5962 0 0
rhand -23.1683 -32.5229 0
rfingers 7.12502 0 0
rthumb 3.28159 -62.5098 0
